/* XPM */
static char *bitcoin32[] = {
/* columns rows colors chars-per-pixel */
"32 32 123 2 ",
"   c #065A82",
".  c #095B83",
"X  c #095C83",
"o  c #0B5D84",
"O  c #116087",
"+  c #126188",
"@  c #146289",
"#  c #1A678C",
"$  c #1C678D",
"%  c #1C7293",
"&  c #1D7293",
"*  c #1F7494",
"=  c #227596",
"-  c #2A7295",
";  c #2D7296",
":  c #267798",
">  c #287999",
",  c #2C7A98",
"<  c #2E7B99",
"1  c #2D7C9B",
"2  c #2F7D9C",
"3  c #327599",
"4  c #35779A",
"5  c #387F9D",
"6  c #35809F",
"7  c #36819F",
"8  c #3781A0",
"9  c #3882A0",
"0  c #3882A1",
"q  c #3982A1",
"w  c #3C84A2",
"e  c #4086A4",
"r  c #4487A4",
"t  c #478BA8",
"y  c #4E8EAB",
"u  c #5A8EAD",
"i  c #5290AD",
"p  c #5592AF",
"a  c #5894B0",
"s  c #5E97B3",
"d  c #6293B2",
"f  c #6796B4",
"g  c #6B98B6",
"h  c #739EBB",
"j  c #70A1BB",
"k  c #72A3BD",
"l  c #73A3BD",
"z  c #7DA9C2",
"x  c #85A9C4",
"c  c #84ADC6",
"v  c #88ACC6",
"b  c #8AACC6",
"n  c #89B0C8",
"m  c #9EB3C2",
"M  c #9FB3C2",
"N  c #9CBBD2",
"B  c #9DBBD2",
"V  c #9FBCD3",
"C  c #A0B4C3",
"Z  c #A6B8C7",
"A  c #A7B9C9",
"S  c #ABBCCB",
"D  c #B0BFCF",
"F  c #A1BED4",
"G  c #A4BDD4",
"H  c #A7BED6",
"J  c #A9C1D7",
"K  c #ADC2D8",
"L  c #AEC3D9",
"P  c #B9C6D5",
"I  c #BBC7D7",
"U  c #B5C7DD",
"Y  c #B3C8DD",
"T  c #BEC9D9",
"R  c #BBCAE0",
"E  c #BDCBE1",
"W  c #BFCDE2",
"Q  c #C1CBDB",
"!  c #C6CEDF",
"~  c #C0CDE2",
"^  c #C0CFE3",
"/  c #C1CFE4",
"(  c #C7D0E0",
")  c #C8D2E6",
"_  c #C9D4E8",
"`  c #C9D5E8",
"'  c #CCD6E9",
"]  c #CDD7EA",
"[  c #CED6EA",
"{  c #D5D9EA",
"}  c #D3DBED",
"|  c #D5DBED",
" . c #D6DBEE",
".. c #D7DCEE",
"X. c #DADDED",
"o. c #DDDFF0",
"O. c #DCE0F1",
"+. c #DFE0F1",
"@. c #DEE1F2",
"#. c #E1E2F2",
"$. c #E0E2F3",
"%. c #E1E2F3",
"&. c #E1E2F4",
"*. c #E3E3F4",
"=. c #E3E4F5",
"-. c #E4E4F5",
";. c #E5E4F5",
":. c #E6E4F5",
">. c #E5E5F6",
",. c #E6E5F6",
"<. c #E7E5F6",
"1. c #E6E5F7",
"2. c #E7E5F7",
"3. c #E6E6F6",
"4. c #E7E6F6",
"5. c #E6E6F7",
"6. c #E7E6F7",
"7. c #E7E7F7",
"8. c #E8E6F7",
"9. c #E6E6F8",
"0. c #E7E6F8",
"q. c #E8E6F8",
"w. c None",
/* pixels */
"w.w.w.w.w.w.w.w.w.w.w.w.w.w.w.w.w.w.w.w.w.w.w.w.w.w.w.w.w.w.w.w.",
"w.w.w.w.w.w.w.w.w.w.w.w.w.4.7.2.4.4.4.w.w.w.w.w.w.w.w.w.w.w.w.w.",
"w.w.w.w.w.w.w.w.w.w.2.2.2.7.2.7.2.7.2.7.7.2.w.w.w.w.w.w.w.w.w.w.",
"w.w.w.w.w.w.w.w.7.2.7.7.2.2.7.2.7.2.7.2.2.7.2.7.w.w.w.w.w.w.w.w.",
"w.w.w.w.w.w.w.4.7.2.7.2.7.2.7.2.2.7.7.2.7.2.7.2.7.w.w.w.w.w.w.w.",
"w.w.w.w.w.w.2.4.2.7.2.7.2.7.2.7.7.2.2.7.2.7.2.7.2.2.w.w.w.w.w.w.",
"w.w.w.w.w.2.2.2.7.2.7.2.7.2.7.2.2.7.2.2.7.2.7.2.7.2.7.w.w.w.w.w.",
"w.w.w.w.4.2.7.2.2.7.2.7.2.7.2.@.] ] =.7.2.7.2.7.2.7.2.7.w.w.w.w.",
"w.w.w.2.2.7.2.7.2.7.2.7.2.7.2.F % % ] 7.2.7.2.7.7.2.2.7.4.w.w.w.",
"w.w.w.7.2.2.7.2.7.2.7.2.7.2.7.F % % ] 2.7.2.7.2.2.7.7.2.2.w.w.w.",
"w.w.2.7.4.4.2.2.2.7.2.7.2.7.4.F % % ] 2.2.7.2.2.7.4.2.7.7.2.w.w.",
"w.w.2.2.*.@.@.@.7.2.} k t i N F % % ] *.W | 2.4.*.W | 2.2.7.w.w.",
"w.w.7.2.4.S m Z =.O.8 % % 2 * y % % F $   o v R #   . x 7.q.w.w.",
"w.7.2.7.2.X.m m Q n % % N 7.' 2 % % - g ;   + 3 f 4   o | q.q.w.",
"w.7.7.2.2.7.( m M r % 8 4.2.7.z % % v 2.W     h 4.]     L 2.7.w.",
"w.2.2.7.7.2.4.D M < % p 2.7.2.V % * / 2.@.    K 2.2.O   J 2.4.w.",
"w.7.7.2.2.2.7.T m , * a 7.2.=.J % % ] 4.7.    U 2.7.@   J 2.2.w.",
"w.7.2.7.2.4.} m m 7 % w 2.7.2.c % % ] 2.2.    U 7.2.@   H 2.2.w.",
"w.2.7.2.7.=.Z m D j % * ^ 7.@.q % % ] 2.2.    Y 2.7.+   H 7.4.w.",
"w.w.2.2.4.I M M X.' = % : s 8 w % % ] 7.2.    Y 7.2.@   H 2.w.w.",
"w.w.2.7.@.P P ( 4.2.J 8 % : k Y 8 6 ` 2.7.u u ) 7.2.d u W 4.w.w.",
"w.w.7.2.2.7.2.7.4.2.2.2.@.4.q.2.2.4.7.2.7.2.7.2.2.7.2.7.2.7.w.w.",
"w.w.w.4.7.2.7.2.7.2.7.2.2.7.2.7.2.7.2.7.2.7.2.7.7.2.7.2.2.w.w.w.",
"w.w.w.q.2.7.2.7.2.7.2.7.7.2.7.2.7.2.7.2.7.2.7.2.2.7.2.4.7.w.w.w.",
"w.w.w.w.2.7.2.7.2.7.2.7.2.7.2.7.2.7.2.7.2.7.2.7.7.2.7.2.w.w.w.w.",
"w.w.w.w.w.2.7.2.7.2.7.2.7.2.7.2.7.2.7.2.7.2.7.2.2.7.2.w.w.w.w.w.",
"w.w.w.w.w.w.2.2.2.7.2.7.2.7.2.7.2.7.2.7.2.7.2.7.7.7.w.w.w.w.w.w.",
"w.w.w.w.w.w.w.7.7.2.7.2.7.2.7.2.7.2.7.2.7.2.7.2.2.w.w.w.w.w.w.w.",
"w.w.w.w.w.w.w.w.2.2.2.7.2.7.2.7.2.7.2.7.2.7.2.7.w.w.w.w.w.w.w.w.",
"w.w.w.w.w.w.w.w.w.w.4.2.7.2.7.2.7.2.7.2.7.2.w.w.w.w.w.w.w.w.w.w.",
"w.w.w.w.w.w.w.w.w.w.w.w.w.4.7.4.2.4.4.w.w.w.w.w.w.w.w.w.w.w.w.w.",
"w.w.w.w.w.w.w.w.w.w.w.w.w.w.w.w.w.w.w.w.w.w.w.w.w.w.w.w.w.w.w.w."
};
