/* XPM */
static char *bitcoin64[] = {
/* columns rows colors chars-per-pixel */
"64 64 200 2 ",
"   c #065A82",
".  c #075B82",
"X  c #0D5E85",
"o  c #126188",
"O  c #106388",
"+  c #146389",
"@  c #13648A",
"#  c #17648A",
"$  c #19658C",
"%  c #1A678C",
"&  c #1C688D",
"*  c #1E698E",
"=  c #1C7293",
"-  c #1D7293",
";  c #1F7394",
":  c #226B90",
">  c #217595",
",  c #257797",
"<  c #2E7397",
"1  c #267898",
"2  c #277898",
"3  c #297999",
"4  c #2B7998",
"5  c #2B7A9A",
"6  c #2E7C9C",
"7  c #317598",
"8  c #36779A",
"9  c #307D9C",
"0  c #327E9E",
"q  c #35809F",
"w  c #3C829E",
"e  c #3F839F",
"r  c #3882A0",
"t  c #3A83A2",
"y  c #3B83A2",
"u  c #3C84A2",
"i  c #4480A2",
"p  c #4687A2",
"a  c #4287A5",
"s  c #4A84A5",
"d  c #4388A6",
"f  c #4B89A3",
"g  c #4A8CAA",
"h  c #4D8EAB",
"j  c #4E8EAB",
"k  c #4E8FAC",
"l  c #538DA6",
"z  c #588DAC",
"x  c #5190AD",
"c  c #5291AD",
"v  c #5391AE",
"b  c #5E92AB",
"n  c #5E90AF",
"m  c #5C92AF",
"M  c #5793B0",
"N  c #5B96B2",
"B  c #5D97B3",
"V  c #6897B5",
"C  c #6099B4",
"Z  c #6199B5",
"A  c #629AB5",
"S  c #639AB6",
"D  c #6698B5",
"F  c #6B99B6",
"G  c #6A9EB9",
"H  c #6B9FBA",
"J  c #719CBA",
"K  c #72A3BD",
"L  c #77A5BF",
"P  c #78A6C0",
"I  c #79A7C0",
"U  c #7EA5C0",
"Y  c #7BA8C1",
"T  c #7CA9C2",
"R  c #7EAAC3",
"E  c #81A7C2",
"W  c #84A8C3",
"Q  c #81ABC4",
"!  c #84ADC6",
"~  c #88ADC4",
"^  c #87AFC8",
"/  c #88AFC8",
"(  c #8DAEC8",
")  c #8EAEC9",
"_  c #8CB2CA",
"`  c #8DB2CA",
"'  c #8EB3CB",
"]  c #9EB3C2",
"[  c #9FB3C2",
"{  c #9FB4C3",
"}  c #92B1CB",
"|  c #93B1CB",
" . c #90B2CB",
".. c #94B2CC",
"X. c #94B3CC",
"o. c #94B6CE",
"O. c #9AB6CF",
"+. c #9FBBCF",
"@. c #9ABAD0",
"#. c #9ABAD1",
"$. c #9BBAD1",
"%. c #9DB8D0",
"&. c #9EB8D1",
"*. c #9FB9D1",
"=. c #9EBCD3",
"-. c #A1B5C4",
";. c #A2B6C5",
":. c #A3B7C6",
">. c #A6B9C8",
",. c #AABBCB",
"<. c #AABCCB",
"1. c #ADBDCD",
"2. c #AEBECD",
"3. c #A8BED6",
"4. c #A8BFD6",
"5. c #A5C0D6",
"6. c #A6C0D7",
"7. c #A7C1D7",
"8. c #ABC1D8",
"9. c #A9C2D8",
"0. c #ACC1D8",
"q. c #AEC3D9",
"w. c #AFC3DA",
"e. c #B1C0D0",
"r. c #B8C5D5",
"t. c #BAC7D6",
"y. c #B1C4DB",
"u. c #B0C7DC",
"i. c #B5C7DD",
"p. c #B6C7DD",
"a. c #B3C8DD",
"s. c #B4C9DE",
"d. c #BDC9D9",
"f. c #BFC9DA",
"g. c #BFCADA",
"h. c #B8CBE0",
"j. c #BECCE1",
"k. c #BDCEE2",
"l. c #C4CDDD",
"z. c #C7CFE0",
"x. c #C3D1E4",
"c. c #C3D1E5",
"v. c #C3D2E5",
"b. c #C4D2E6",
"n. c #C7D2E6",
"m. c #C8D1E1",
"M. c #CFD5E5",
"N. c #CBD4E8",
"B. c #CDD7EA",
"V. c #CED6EA",
"C. c #CFD7EA",
"Z. c #D0D7E9",
"A. c #D4D9E9",
"S. c #D5D9EA",
"D. c #D2DAED",
"F. c #D4DAED",
"G. c #D5DBEE",
"H. c #D6DCEE",
"J. c #D7DDEF",
"K. c #D8DBEC",
"L. c #D9DCED",
"P. c #D8DDEF",
"I. c #DADDEE",
"U. c #DCDEEF",
"Y. c #D8DDF0",
"T. c #DADEF0",
"R. c #DBDFF1",
"E. c #DEE0F1",
"W. c #DDE0F2",
"Q. c #DFE1F2",
"!. c #DFE1F3",
"~. c #E0E1F2",
"^. c #E1E1F2",
"/. c #E0E2F3",
"(. c #E1E2F4",
"). c #E2E3F4",
"_. c #E3E3F4",
"`. c #E3E3F5",
"'. c #E4E4F5",
"]. c #E5E4F5",
"[. c #E5E5F5",
"{. c #E6E4F5",
"}. c #E6E6F5",
"|. c #E5E5F6",
" X c #E6E4F6",
".X c #E6E5F6",
"XX c #E7E5F6",
"oX c #E6E5F7",
"OX c #E7E5F7",
"+X c #E6E6F6",
"@X c #E7E6F6",
"#X c #E6E6F7",
"$X c #E7E6F7",
"%X c #E7E7F7",
"&X c #E8E6F6",
"*X c #E8E6F7",
"=X c #E8E7F7",
"-X c #E7E6F8",
";X c #E8E6F8",
":X c None",
/* pixels */
":X:X:X:X:X:X:X:X:X:X:X:X:X:X:X:X:X:X:X:X:X:X:X:X:X:X:X:X:X:X:X:X:X:X:X:X:X:X:X:X:X:X:X:X:X:X:X:X:X:X:X:X:X:X:X:X:X:X:X:X:X:X:X:X",
":X:X:X:X:X:X:X:X:X:X:X:X:X:X:X:X:X:X:X:X:X:X:X:X:X:X:X:X:X:X:X:X:X:X:X:X:X:X:X:X:X:X:X:X:X:X:X:X:X:X:X:X:X:X:X:X:X:X:X:X:X:X:X:X",
":X:X:X:X:X:X:X:X:X:X:X:X:X:X:X:X:X:X:X:X:X:X:X:X:X:X:X:X:X:X:X:X:X:X:X:X:X:X:X:X:X:X:X:X:X:X:X:X:X:X:X:X:X:X:X:X:X:X:X:X:X:X:X:X",
":X:X:X:X:X:X:X:X:X:X:X:X:X:X:X:X:X:X:X:X:X:X:X:X$X$X$X$X$X$X$X$X$X$X$X$X$X$X$X;X:X:X:X:X:X:X:X:X:X:X:X:X:X:X:X:X:X:X:X:X:X:X:X:X",
":X:X:X:X:X:X:X:X:X:X:X:X:X:X:X:X:X:X:X:X:X$X$X$X$X$X$X$X$X$X$X$X$X$X$X$X$X$X$X$X$X$X$X:X:X:X:X:X:X:X:X:X:X:X:X:X:X:X:X:X:X:X:X:X",
":X:X:X:X:X:X:X:X:X:X:X:X:X:X:X:X:X:X:X$X$X$X$X$X$X$X$X$X$X$X$X$X$X$X$X$X$X$X$X$X$X$X$X$X$X:X:X:X:X:X:X:X:X:X:X:X:X:X:X:X:X:X:X:X",
":X:X:X:X:X:X:X:X:X:X:X:X:X:X:X:X:X$X$X$X$X$X$X$X$X$X$X$X$X$X$X$X$X$X$X$X$X$X$X$X$X$X$X$X$X$X$X:X:X:X:X:X:X:X:X:X:X:X:X:X:X:X:X:X",
":X:X:X:X:X:X:X:X:X:X:X:X:X:X:X:X$X$X$X$X$X$X$X$X$X$X$X$X$X$X$X$X$X$X$X$X$X$X$X$X$X$X$X$X$X$X$X$X;X:X:X:X:X:X:X:X:X:X:X:X:X:X:X:X",
":X:X:X:X:X:X:X:X:X:X:X:X:X:X$X$X$X$X$X$X$X$X$X$X$X$X$X$X$X$X$X$X$X$X$X$X$X$X$X$X$X$X$X$X$X$X$X$X$X-X:X:X:X:X:X:X:X:X:X:X:X:X:X:X",
":X:X:X:X:X:X:X:X:X:X:X:X:X$X$X$X$X$X$X$X$X$X$X$X$X$X$X$X$X$X$X$X$X$X$X$X$X$X$X$X$X$X$X$X$X$X$X$X$X$X$X:X:X:X:X:X:X:X:X:X:X:X:X:X",
":X:X:X:X:X:X:X:X:X:X:X:X$X$X$X$X$X$X$X$X$X$X$X$X$X$X$X$X$X$X$X$X$X$X$X$X$X$X$X$X$X$X$X$X$X$X$X$X$X$X$X*X:X:X:X:X:X:X:X:X:X:X:X:X",
":X:X:X:X:X:X:X:X:X:X:X$X$X$X$X$X$X$X$X$X$X$X$X$X$X$X$X$X$X$X$X$X$X$X$X$X$X$X$X$X$X$X$X$X$X$X$X$X$X$X$X$X$X:X:X:X:X:X:X:X:X:X:X:X",
":X:X:X:X:X:X:X:X:X:X$X$X$X$X$X$X$X$X$X$X$X$X$X$X$X$X$X$X$X$X$X$X$X$X$X$X$X$X$X$X$X$X$X$X$X$X$X$X$X$X$X$X$X$X:X:X:X:X:X:X:X:X:X:X",
":X:X:X:X:X:X:X:X:X$X$X$X$X$X$X$X$X$X$X$X$X$X$X$X$X$X$X$X$X$X$X$X$X$X$X$X$X$X$X$X$X$X$X$X$X$X$X$X$X$X$X$X$X$X$X:X:X:X:X:X:X:X:X:X",
":X:X:X:X:X:X:X:X$X$X$X$X$X$X$X$X$X$X$X$X$X$X$X$X$X$X$X$X$X$X$X$X$X$X$X$X$X*X$X$X$X$X$X$X$X$X$X$X$X$X$X$X$X$X$X$X:X:X:X:X:X:X:X:X",
":X:X:X:X:X:X:X:X$X$X$X$X$X$X$X$X$X$X$X$X$X$X$X$X$X$X$X$X$X$X$Xv.s.s.s.s.Y.*X$X$X$X$X$X$X$X$X$X$X$X$X$X$X$X$X$X$X$X:X:X:X:X:X:X:X",
":X:X:X:X:X:X:X-X$X$X$X$X$X$X$X$X$X$X$X$X$X$X$X$X$X$X$X$X$X$X$XN = = = = s.$X$X$X$X$X$X$X$X$X$X$X$X$X$X$X$X$X$X$X$X:X:X:X:X:X:X:X",
":X:X:X:X:X:X-X$X$X$X$X$X$X$X$X$X$X$X$X$X$X$X$X$X$X$X$X$X$X$X$XN = = = = s.$X$X$X$X$X$X$X$X$X$X$X$X$X$X$X$X$X$X$X$X$X:X:X:X:X:X:X",
":X:X:X:X:X:X$X$X$X$X$X$X$X$X$X$X$X$X$X$X$X$X$X$X$X$X$X$X$X$X$XN = = = = s.$X$X$X$X$X$X$X$X$X$X$X$X$X$X$X$X$X$X$X$X$X:X:X:X:X:X:X",
":X:X:X:X:X$X$X$X$X$X$X$X$X$X$X$X$X$X$X$X$X$X$X$X$X$X$X$X$X$X$XN = = = = s.$X$X$X$X$X$X$X$X$X$X$X$X$X$X$X$X$X$X$X$X$X$X:X:X:X:X:X",
":X:X:X:X:X$X$X$X$X$X$X$X$X$X$X$X$X$X$X$X$X$X$X$X$X$X$X$X$X$X$XN = = = = s.$X$X$X$X$X$X$X$X$X$X$X$X$X$X$X$X$X$X$X$X$X$X:X:X:X:X:X",
":X:X:X:X$X$X$X$X$X$X$X$X$X$X$X$X$X$X$X$X$X$X$X$X$X$X$X$X$X$X$XN = = = = s.$X$X$X$X$X$X$X$X$X$X$X$X$X$X$X$X$X$X$X$X$X$X-X:X:X:X:X",
":X:X:X:X$X$X$X$X$X$X$X$X$X$X;X$X$X$X$X$X$X$XE.7.T H L #.Y.$X-XN = = = = s.$X$X$X$X-X$X$X$X$X$X;X$X*X*X$X$X;X$X$X$X$X$X$X:X:X:X:X",
":X:X:X:X$X$X$X$X$XE.A.A.A.A.A.~.$X$X$X$X$X#.5 = = = = = , ` ;XN = = = = a.$X$XB.*.} 0.E.$X$X$X;X$XB.*.X.4.E.$X$X$X$X$X$X:X:X:X:X",
":X:X:X$X$X$X$X$X$X~.:.] ] ] ] f.$X$X$X$X` = = = = = = = = = ! N = = = = s.E.n .       o X.-X$XY.z         o ( *X$X$X$X$X$X:X:X:X",
":X:X:X$X$X$X$X$X$X$XM.] ] ] ] ] I.$X$Xk.= = = = = = u g 5 = ; r = = = = a.s               4.$Xi               O.$X$X$X$X$X:X:X:X",
":X:X:X-X$X$X$X$X$X$X$Xr.] ] ] ] e.$X$Xv = = = = 6 h.$X$X_.Q = = = = = = V                 8 (                 % $X$X$X$X$X:X:X:X",
":X:X:X$X$X$X$X$X$X$X$X_.>.] ] ] ] M.B.= = = = = 9.$X$X$X$X$XA = = = = = O < j.$X*.X         % * y.`.y.%         8.$X$X$X$X:X:X:X",
":X:X:X$X$X$X$X$X$X$X$X$XA.] ] ] ] >.~ = = = = r $X$X$X$X$X$Xv.= = = = = o N.$X$X$XJ           y.$X$X$X}         E $X$X$X$X$X:X:X",
":X:X:X$X$X$X$X$X$X$X$X$X$Xf.] ] ] ] l = = = = G $X$X$X$X$X$X$X9 = = = = m -X$X$X-Xi.        7 $X$X$X$XI.        F $X$X$X$X$X:X:X",
":X:X:X$X$X$X$X$X$X$X$X$X$X$X,.] ] ] p = = = = / $X$X$X$X$X$X$Xv = = = = ` $X$X$X-XK.        V $X$X$X$X$X#       V $X$X$X$X$X:X:X",
":X:X:X$X$X$X$X$X$X$X$X$X$X$XK.] ] ] w = = = = o.$X$X$X$X$X$X$XB = = = = 6.$X$X$X-XE.        U $X$X$X$X$X:       V $X$X$X$X$X:X:X",
":X:X:X$X$X$X$X$X$X$X$X$X$X$X$X2.] ] w = = = = #.$X$X$X$X$X$X-XZ = = = = a.-X-X$X$X$X        W $X$X$X$X$X:       V $X$X$X$X$X:X:X",
":X:X:X$X$X$X$X$X$X$X$X$X$X$Xm.] ] ] e = = = = ' $X$X$X$X$X$X-XM = = = = s.%X$X$X$X$X        W $X$X$X$X$X:       V $X$X$X$X$X:X:X",
":X:X:X$X$X$X$X$X$X$X$X$X$XI.-.] ] ] f = = = = L $X$X$X$X$X$X-Xr = = = = s.$X$X$X$X$X        W $X$X$X$X$X:       V $X$X$X$X$X:X:X",
":X:X:X$X$X$X$X$X$X$X$X$X$X2.] ] ] ] b = = = = v $X$X$X$X$X$XK.= = = = = s.$X$X$X$X$X        W $X$X$X$X$X:       V $X$X$X$X$X:X:X",
":X:X:X$X$X$X$X$X$X$X$X$Xl.] ] ] ] 2.>.= = = = ; D.$X$X$X$X$X^ = = = = = s.$X$X$X$X$X        W $X$X$X$X$X:       V $X$X$X$X:X:X:X",
":X:X:X-X$X$X$X$X$X$X$XI.] ] ] ] ] H.!.3 = = = = A $X$X$X$Xv.1 = = = = = s.$X$X$X$X$X        W $X$X$X$X$X:       V $X$X$X$X:X:X:X",
":X:X:X*X$X$X$X$X$X$X~.<.] ] ] ] t.-X%XY = = = = = h #.7.T 5 = 1 = = = = s.$X$X$X$X$X        W $X$X$X$X$X:       V $X$X$X$X:X:X:X",
":X:X:X*X$X$X$X$X$X$Xl.] ] ] ] :.!.#X#XW.q = = = = = = = = = h A = = = = a.$X$X$X$X$X        W $X$X$X$X$X:       V $X$X$X$X:X:X:X",
":X:X:X:X$X$X$X$X$XA.] ] ] ] ] z.-X-X$X$Xv.4 = = = = = = = d H.K = = = = 7.$X$X$X$X$X        W $X$X$X$X$X:       V $X$X$X:X:X:X:X",
":X:X:X:X$X$X$X$X$XI.A.A.A.A.A.$X$X$X$X$X$XB.L 0 = = ; d ` ~.$X=.k k k k a.$X$X$X$X$Xq.q.q.q.B.$X$X$X$X$Xs.q.q.0.n.$X$X$X:X:X:X:X",
":X:X:X:X$X$X$X$X$X$X$X$X*X$X$X$X$X$X$X$X$X$X*X$XE.Y._.$X-X$X$X$X$X$X$X$X$X$X$X$X$X$X$X$X$X$X$X$X$X$X$X$X*X*X$X$X$X$X$X$X:X:X:X:X",
":X:X:X:X:X$X$X$X$X$X$X$X$X$X$X$X$X$X$X$X$X$X$X$X$X$X$X$X$X$X$X$X$X$X$X$X$X$X$X$X$X$X$X$X$X$X$X$X$X$X$X$X$X*X$X$X$X$X$X:X:X:X:X:X",
":X:X:X:X:X$X$X$X$X$X$X$X$X$X$X$X$X$X$X$X$X$X$X$X$X$X$X$X$X$X$X$X$X$X$X$X$X$X$X$X$X$X$X$X$X$X$X$X$X$X$X$X$X$X$X$X$X$X$X:X:X:X:X:X",
":X:X:X:X:X:X$X$X$X$X$X$X$X$X$X$X$X$X$X$X$X$X$X$X$X$X$X$X$X$X$X$X$X$X$X$X$X$X$X$X$X$X$X$X$X$X$X$X$X$X$X$X$X$X$X$X$X$X:X:X:X:X:X:X",
":X:X:X:X:X:X$X$X$X$X$X$X$X$X$X$X$X$X$X$X$X$X$X$X$X$X$X$X$X$X$X$X$X$X$X$X$X$X$X$X$X$X$X$X$X$X$X$X$X$X$X$X$X$X$X$X$X$X:X:X:X:X:X:X",
":X:X:X:X:X:X:X$X$X$X$X$X$X$X$X$X$X$X$X$X$X$X$X$X$X$X$X$X$X$X$X$X$X$X$X$X$X$X$X$X$X$X$X$X$X$X$X$X$X$X$X$X$X$X$X$X$X:X:X:X:X:X:X:X",
":X:X:X:X:X:X:X:X$X$X$X$X$X$X$X$X$X$X$X$X$X$X$X$X$X$X$X$X$X$X$X$X$X$X$X$X$X$X$X$X$X$X$X$X$X$X$X$X$X$X$X$X$X$X$X$X$X:X:X:X:X:X:X:X",
":X:X:X:X:X:X:X:X$X$X$X$X$X$X$X$X$X$X$X$X$X$X$X$X$X$X$X$X$X$X$X$X$X$X$X$X$X$X$X$X$X$X$X$X$X$X$X$X$X$X$X$X$X$X$X$X:X:X:X:X:X:X:X:X",
":X:X:X:X:X:X:X:X:X$X$X$X$X$X$X$X$X$X$X$X$X$X$X$X$X$X$X$X$X$X$X$X$X$X$X$X$X$X$X$X$X$X$X$X$X$X$X$X$X$X$X$X$X$X$X:X:X:X:X:X:X:X:X:X",
":X:X:X:X:X:X:X:X:X:X$X$X$X$X$X$X$X$X$X$X$X$X$X$X$X$X$X$X$X$X$X$X$X$X$X$X$X$X$X$X$X$X$X$X$X$X$X$X$X$X$X$X$X*X:X:X:X:X:X:X:X:X:X:X",
":X:X:X:X:X:X:X:X:X:X:X$X$X$X$X$X$X$X$X$X$X$X$X$X$X$X$X$X$X$X$X$X$X$X$X$X$X$X$X$X$X$X$X$X$X$X$X$X$X$X$X$X$X:X:X:X:X:X:X:X:X:X:X:X",
":X:X:X:X:X:X:X:X:X:X:X:X$X$X$X$X$X$X$X$X$X$X$X$X$X$X$X$X$X$X$X$X$X$X$X$X$X$X$X$X$X$X$X$X$X$X$X$X$X$X$X*X:X:X:X:X:X:X:X:X:X:X:X:X",
":X:X:X:X:X:X:X:X:X:X:X:X:X$X$X$X$X$X$X$X$X$X$X$X$X$X$X$X$X$X$X$X$X$X$X$X$X$X$X$X$X$X$X$X$X$X$X$X$X$X-X:X:X:X:X:X:X:X:X:X:X:X:X:X",
":X:X:X:X:X:X:X:X:X:X:X:X:X:X$X$X$X$X$X$X$X$X$X$X$X$X$X$X$X$X$X$X$X$X$X$X$X$X$X$X$X$X$X$X$X$X$X$X$X-X:X:X:X:X:X:X:X:X:X:X:X:X:X:X",
":X:X:X:X:X:X:X:X:X:X:X:X:X:X:X:X$X$X$X$X$X$X$X$X$X$X$X$X$X$X$X$X$X$X$X$X$X$X$X$X$X$X$X$X$X$X$X$X*X:X:X:X:X:X:X:X:X:X:X:X:X:X:X:X",
":X:X:X:X:X:X:X:X:X:X:X:X:X:X:X:X:X$X$X$X$X$X$X$X$X$X$X$X$X$X$X$X$X$X$X$X$X$X$X$X$X$X$X$X$X$X$X:X:X:X:X:X:X:X:X:X:X:X:X:X:X:X:X:X",
":X:X:X:X:X:X:X:X:X:X:X:X:X:X:X:X:X:X:X$X$X$X$X$X$X$X$X$X$X$X$X$X$X$X$X$X$X$X$X$X$X$X$X$X$X:X:X:X:X:X:X:X:X:X:X:X:X:X:X:X:X:X:X:X",
":X:X:X:X:X:X:X:X:X:X:X:X:X:X:X:X:X:X:X:X:X$X$X$X$X$X$X$X$X$X$X$X$X$X$X$X$X$X$X$X$X$X*X:X:X:X:X:X:X:X:X:X:X:X:X:X:X:X:X:X:X:X:X:X",
":X:X:X:X:X:X:X:X:X:X:X:X:X:X:X:X:X:X:X:X:X:X:X:X$X$X$X$X$X$X$X$X$X$X$X$X$X$X$X;X:X:X:X:X:X:X:X:X:X:X:X:X:X:X:X:X:X:X:X:X:X:X:X:X",
":X:X:X:X:X:X:X:X:X:X:X:X:X:X:X:X:X:X:X:X:X:X:X:X:X:X:X:X:X:X:X:X:X:X:X:X:X:X:X:X:X:X:X:X:X:X:X:X:X:X:X:X:X:X:X:X:X:X:X:X:X:X:X:X",
":X:X:X:X:X:X:X:X:X:X:X:X:X:X:X:X:X:X:X:X:X:X:X:X:X:X:X:X:X:X:X:X:X:X:X:X:X:X:X:X:X:X:X:X:X:X:X:X:X:X:X:X:X:X:X:X:X:X:X:X:X:X:X:X",
":X:X:X:X:X:X:X:X:X:X:X:X:X:X:X:X:X:X:X:X:X:X:X:X:X:X:X:X:X:X:X:X:X:X:X:X:X:X:X:X:X:X:X:X:X:X:X:X:X:X:X:X:X:X:X:X:X:X:X:X:X:X:X:X"
};
