/* XPM */
static char *bitcoin128[] = {
/* columns rows colors chars-per-pixel */
"128 128 84 1 ",
"  c #065A82",
". c #0B5D84",
"X c #13658A",
"o c #1A678D",
"O c #1E698E",
"+ c #1C7293",
"@ c #216B90",
"# c #296F94",
"$ c #237596",
"% c #2D7296",
"& c #2A7A9A",
"* c #337699",
"= c #347B9C",
"- c #3E7D9F",
"; c #417EA1",
": c #35809F",
"> c #3781A0",
", c #3A83A2",
"< c #4485A4",
"1 c #4883A4",
"2 c #4589A7",
"3 c #478BA8",
"4 c #4C8DAA",
"5 c #538CAB",
"6 c #5A8EAD",
"7 c #5190AD",
"8 c #5C92AB",
"9 c #5794B0",
"0 c #5A95B1",
"q c #6A99AF",
"w c #6696B3",
"e c #6897B5",
"r c #639AB6",
"t c #6B9DB8",
"y c #769FB3",
"u c #769FBC",
"i c #6EA1BB",
"p c #7FA3B6",
"a c #75A1BC",
"s c #7CA4BE",
"d c #7AA6C0",
"f c #7DA9C2",
"g c #81A4B7",
"h c #93ADBE",
"j c #80A6C2",
"k c #82ACC5",
"l c #8EAFC8",
"z c #8CB2CA",
"x c #9EB3C2",
"c c #93B3CC",
"v c #99B5CE",
"b c #9CB7D0",
"n c #9ABAD1",
"m c #A2B5C5",
"M c #A5B8C7",
"N c #A7B9C8",
"B c #ACBCCC",
"V c #A3BED5",
"C c #B1BFD0",
"Z c #B0C0CF",
"A c #A6C1D7",
"S c #ADC3DA",
"D c #B5C2D2",
"F c #BAC7D6",
"G c #BCC8D7",
"H c #B1C6DC",
"J c #B4C9DE",
"K c #BBC9DC",
"L c #BCCDE1",
"P c #C2CCDC",
"I c #C1CEE3",
"U c #C4D1E5",
"Y c #CCD3E3",
"T c #CBD5E8",
"R c #D2D7E7",
"E c #D2D7E8",
"W c #D3DAEC",
"Q c #D9DDEE",
"! c #DCDFF0",
"~ c #DEE1F2",
"^ c #E7E6F7",
"/ c #E8E6F7",
"( c #E7E6F8",
") c None",
/* pixels */
"))))))))))))))))))))))))))))))))))))))))))))))))))))))))))))))))))))))))))))))))))))))))))))))))))))))))))))))))))))))))))))))))",
"))))))))))))))))))))))))))))))))))))))))))))))))))))))))))))))))))))))))))))))))))))))))))))))))))))))))))))))))))))))))))))))))",
"))))))))))))))))))))))))))))))))))))))))))))))))))))))))))))))))))))))))))))))))))))))))))))))))))))))))))))))))))))))))))))))))",
"))))))))))))))))))))))))))))))))))))))))))))))))))))))))))))))))))))))))))))))))))))))))))))))))))))))))))))))))))))))))))))))))",
"))))))))))))))))))))))))))))))))))))))))))))))))))))))))))))))))))))))))))))))))))))))))))))))))))))))))))))))))))))))))))))))))",
"))))))))))))))))))))))))))))))))))))))))))))))))))))))))/^^/^^^^//(///(())))))))))))))))))))))))))))))))))))))))))))))))))))))))",
")))))))))))))))))))))))))))))))))))))))))))))))))))^^^//^^^^^^^^//((///(^^/^/)))))))))))))))))))))))))))))))))))))))))))))))))))",
")))))))))))))))))))))))))))))))))))))))))))))))/^^^^^^/^^^^^^^^^///(//((^^///////)))))))))))))))))))))))))))))))))))))))))))))))",
"))))))))))))))))))))))))))))))))))))))))))))^^^^^^^^^^^^^^^^^^^^^^^^^/^^^^^^^^^^^^^^))))))))))))))))))))))))))))))))))))))))))))",
"))))))))))))))))))))))))))))))))))))))))))/^^^^^^^^^^^^^^^^^^^^^^^^(^^^^^^^^^/^^^^^^///)))))))))))))))))))))))))))))))))))))))))",
")))))))))))))))))))))))))))))))))))))))///^^^^^^^^^^/(//^^^^^^^^^^^^^^^^^^^^^^^^^^^^/((^/)))))))))))))))))))))))))))))))))))))))",
")))))))))))))))))))))))))))))))))))))/////^^^^^^^^^^////^^^^^^^^^^^^^^^^^^^^^^^^(/^^//((///)))))))))))))))))))))))))))))))))))))",
")))))))))))))))))))))))))))))))))))/^^^^/(((^^^^^^^^^^^^^^^^^^^^^^^^^^^^^^^^^^^^^^^^^^^^//((^)))))))))))))))))))))))))))))))))))",
"))))))))))))))))))))))))))))))))))//^^^^/(/(^^^^^^^^^^^^^^^^^^^(^^^/^^^^^^^^^^/^^^^^^^^^///(^^/)))))))))))))))))))))))))))))))))",
"))))))))))))))))))))))))))))))))^^^^(^^^^^((^^^^^^^^^^^^^^^^^^^/^^^^^^^^^^^^^^^^^^^^^^^^^^((^^^^))))))))))))))))))))))))))))))))",
")))))))))))))))))))))))))))))))^^^^^^^^^^^^^^^^^^^^^^^/^^^^^^^^/^^^^^/^^^^^^(^^^^^^^^^^^^^((^^^^/^))))))))))))))))))))))))))))))",
")))))))))))))))))))))))))))))^^^^^^^^^^^^^^^^^^^^^^^^^^^^^^^^^^^^^^^^^^^^^^^^^^^^^^^^^^^^^^//(^^^^^)))))))))))))))))))))))))))))",
"))))))))))))))))))))))))))))^^^^^^^^^^(^^^/^^^^^^^^^^^^^^^^^^^^^^^^^^^^^(/^^^^^^^^^^^^^^^^^^^^^^^^^^^)))))))))))))))))))))))))))",
")))))))))))))))))))))))))))/^^^^^^^^^^^^^^^^^^(^^^^^^^^^^^^^^/^^^^^/^^^^^^^^^^^^^^^^//^^^^^^^^^^^^^^^^))))))))))))))))))))))))))",
")))))))))))))))))))))))))^^^^^^^^^^^^^^^^^^^^^/^^^^^^^^^^^^^^^^^^^^^^^^(^^^^^^^^^^^^(^^^^^^^^^^^^^^^^^^)))))))))))))))))))))))))",
"))))))))))))))))))))))))^^^^^^^^^^^^^^^^^^^^^^^^^^^^^/^^^^^^^^^^^^^^^^^^^^^^^^^^^^^^^^^^^^^^^^^^^^^^^^^^))))))))))))))))))))))))",
")))))))))))))))))))))))^^^^^^^^^^^/^^^^^^^^^^^^^^^^^^^^^^^^^^^^^^^^^^^^^^^^^^^^^^^^^^^^^^^^^^^^^^^^^^^^^^)))))))))))))))))))))))",
"))))))))))))))))))))))(^^^^^^^^^^^^^^^^^^^^^^^^^^^^/^^^^^^^^^^^^^/^^^^/^^^^^^^^^^^^^^^^^^^^^^^^^^^^^^^^^^^))))))))))))))))))))))",
")))))))))))))))))))))^^^^^^^^^^^^^^^^^^^^^^^^^^^^^^^^^^^^^^^^^^^^^^^^^^^^^^^^^^^^^^^^^^^^^^^^^^^^^^^^^^^^^/)))))))))))))))))))))",
"))))))))))))))))))))^^^^^^^^^^^^^^^/^^^^^^^^^^^^^^^^^^^^^^^^/^^^^^^^(^^^(^^^^^^^^^^^^^^^^^^^^/(^^^^^^^^^^^^^))))))))))))))))))))",
")))))))))))))))))))/^^^^^^^^^^^^^^^^^^^^^^^^^^^/^^^^^^^^^^^^^^^^^^^^((^^^^^^^^^^^^^^^^^^^^(/^^^^^^^^^^^^^^^^^)))))))))))))))))))",
")))))))))))))))))))^^^^^^^^^^^^^^^^^^^^^^^^^^^^^^^^^^^^^^^^^^^^^^^^^/(//^^^^^^^^^^^^^^^^^^^^^^^^^^^^^^^^^^^^^^))))))))))))))))))",
"))))))))))))))))))^^^^^^^^^^^^^^^^^^^^^^^^^^^^^^^^^^^^^^^^^^^^^^(^^^(((/^^^^(/^^^^^^^^^^^^^^^^^^^^^^^^^^^^^^^^^)))))))))))))))))",
")))))))))))))))))^^^^^^^^^^^^^^^^^^^^^^^^^^^^^^^^^^^^^^^^^^^^^^^^^//////^^^^^^^^^^^^^^^^^^^^^^^^^^^^^^^^^^^//^^/))))))))))))))))",
"))))))))))))))))^^^^^^^^^^^^^^^^^^^^^^^^^^^^^^^^^^^^^^^/^^^^^^^^^^//((//^^^^^^^^(/^^^^^^^^^^^^^^^^^/^^^^^^^^^^^^))))))))))))))))",
")))))))))))))))/^^^^^^^^^^^^^^^^^^^^^^/^^^^^^^^^^^^^^^^^^^^^^^((^((/((((^^^^^^^^^^^^^^^^^^^^^^^^^^^^^^(^^^^^^^^^^)))))))))))))))",
")))))))))))))))^^^^^^^^^^^^^^^^^^^^^^^^^^^^^^^^^^^^^^^^^^^^^^^UffkkkffkkJ^^^^^^^^^^^^^^^^^^^^^^^^^^^^^^^^^^^^^^^^^))))))))))))))",
"))))))))))))))^^^^^^^^^^^^^^^^^^^^/^^^^^^^^^^^^^^^^^^^^^^^^^^^n+++++++++k^^^^^^^^^^^^^^^^^^^^^^^^^^^^^^^^^^^^^^^^^))))))))))))))",
"))))))))))))))^^/^^^^^^^^^^^^^^^^^^^^^^^^^^^^^(^^^^^^^^^^^^^^^n+++++++++k^^^^^^(^^(^^^(^^^^^^^^^^^^^^^^^^^^^^^^^^^^)))))))))))))",
")))))))))))))^^^^^^^^^^^^^^^^^^^^^^^^^^^^^^^^^/^^^^^^^^^^^^^^^n+++++++++k^^^^^^^^^^^^^^^^^^^^^^^^^^^/^^^^^^^^^^^^^^^))))))))))))",
"))))))))))))^^^^^^^^^^^^^^^^^^^^^^^^^^^^^^^^^^^^^^^^^^^^^^(^^(n+++++++++k^^^^^^^/^^^(^^^^^^^^^^^^^^^^(^^^^^^^^^^^^^^))))))))))))",
"))))))))))))^^^^^^^^^^^^^^^^^^^^^^^^^^/^^^^^^^^^^^^^^^^^^^^^^^n+++++++++k/((^^^^^^^^^^^(^^^^^^^^^^^^^^^^^^^^^^^^^^^^^)))))))))))",
")))))))))))^^^^^^^^^^^^^^^^^^^^^^^^^^(^^^^^^^^^^^^^^^^^^^^^^^^n+++++++++f(^^^^^^^^^^^^^^^^^^^^^^^^^^^^^^^^/^^^^^^^^^^)))))))))))",
")))))))))))^^^^^^^^^^^^^^^^^^^^^^^^^^^^^^^^^^^^^^(^^^^^^^^^^^^n+++++++++k^^^^^^^^^^^^(^^^^^^^^^^^^^^^^^^(^^^^^^^^^^^^^))))))))))",
"))))))))))^^^^^^^^^^^^^^^/^^^^^^^^^^^^^^^^^^^^^^^^^^^^^^^^^^^^n+++++++++k^^^^^^^^^^^^^^^^^^^^^^^^^^^^^^^^^^^^^^^^^^^^^))))))))))",
"))))))))))^^^^^^^^^^^^^^^^^^^^^^^^^^^^^^^^^^^^^^^^^^^^^^^^^^^^n+++++++++k((^^^^^^^^^^^^^^^^^^^^^^^^^^^^^^^^^^^^^^^^^^^^)))))))))",
")))))))))^^^^^^^^^^^^^^^^^^^^^^^^^^^^^^^^^^(^^^^^^^^^^^^^^^^^^n+++++++++k^(^^^^^^^^^^^^^^^^^^^^^^^^^^^^^^^^^^^^^^^^^^^()))))))))",
")))))))))^^^^^^^^^^^^^^/^^^^^^^^^^(^^^^^^^^^^^^^^^^^^^^^^^^^^^n+++++++++k(^^^^^^/^^^^^^(^^^^^^^^^^^^^^^^^^^^^^^^^^^^^^^)))))))))",
")))))))))^^^^^^^^^^^^^^^^^^^^^^^^^^^^^^^^/^^^^^^^(^(^^^^^^^^^^n+++++++++k^^^^^^^^^^^^^^^^^^^^^^^^^/^^^^^^^^^^^/^^^^^^^^^))))))))",
"))))))))^^^^^^^^^^^^^^^^^^^^^^^^^^^^^^^^//((^^^^(WUJTQ((^(((^^n+++++++++k^^^^^//^^^^^^^^^^^^^^^^^^^^^^^^^^^^^(^^^^^^^^^^))))))))",
"))))))))/^^^^^^^^^^^^^^^^^^^^^^^^^^^^^^^////^Tk<++++++:iS(((^^n+++++++++k^^^^//(^^^^/^^^^^^^^^^^^((/^^^^^^^^^^^^^^^^^^^^))))))))",
"))))))))^^^^^^^^^^//^^^^^^^^^^^^^^^^((((//(T0++++++++++++,J(^^n+++++++++k^^^^^((^^/^((^^^^^^^^^^^^^/^^^^^(^^^^^^^^^^^^^^^)))))))",
")))))))^^^^^^^^^^^^PPPPPPPPPPPQ^^^^^(/(((/c$+++++++++++++++f^^n+++++++++j^^^^^Qlw;;;6jY^^^^^^^^^^^Qce1-16sU^^^^^^^^^^^^^^)))))))",
")))))))^^^^^^^^^^/^YxxxxxxxxxxB^^^^^^^^^^z++++++++++++++++++i/n+++++++++f(/^!t..       ;I(((^^^^Qw.        *I/^^/^^^^^^^^)))))))",
")))))))^^^^^^^^^^^^^DxxxxxxxxxxP^^((^^^^A++++++++++++++++++++nn+++++++++k(/U#           .b((^^^IO           .k^^^^^^^^^^^^))))))",
")))))))^^^^^^^^^^^^^^Mxxxxxxxxxm~/////^T$++++++++++++++++++++:f+++++++++k^To              J(^^Uo             .b^^^^^^^^^^^))))))",
"))))))^^^^(^^^^^^^^^^RxxxxxxxxxxF///(//0++++++++++++4ifi9+++++:+++++++++k^=.              @^^^#               XW^(^^^^^^^^))))))",
"))))))^^^^^^^^^^^^^^^^FxxxxxxxxxxW^((^H+++++++++++7T^^^^^Wi+++++++++++++jk                 l/u                 6^^/^^^^^^^))))))",
"))))))^^^^^^^^^^^^^^^^^MxxxxxxxxxZ^/^^r++++++++++r^^^^^^^^^c++++++++++++jo                 -E.      ..         .!^^^^(^^^^^)))))",
"))))))^^^/^^^^^^^^^^^^^ExxxxxxxxxxY(^Q++++++++++,~^^^^^^^^^^i+++++++++++#   eI/Qv@         .5   ;S!~S;          l//^^^^^^^/)))))",
"))))))^^^^^^^^^^^^^^^^^^PxxxxxxxxxM^^c++++++++++A^^^^^^^^^^^W:++++++++++X  V(^^^(!@            e((////6         5/(^^^^^^^^)))))",
"))))))^^^^^^^^^^^^^^^^^^^BxxxxxxxxxP^4+++++++++>^^^^^^^^^^^^^f++++++++++X s(^^^^^^C           -^/^^^^^!o        %^(^^^^^^^^)))))",
")))))^^^^^^^^^^^^^^^^^^^^QmxxxxxxxxxF:+++++++++a^^^^^^^^^^^^^L++++++++++X@^^^^^^^^(#          K^^^^^^^/t        .^^^^^^^^^^)))))",
")))))^^^^^^^^^^^^^^^^^^^^^Pmxxxxxxxxh++++++++++A^^^^^^^^^^^^(^:+++++++++Xk(^^^^^^^/t         -//^^^^^^/S         Q^^^^^^^^^)))))",
")))))^^^^^^^^^^^^^^^^^^^^^^Cxxxxxxxxg++++++++++Y^^^^^^^^^^^^((9+++++++++XT/^^^^^^//b         d/((/^^^//^         T^^/^^^^^^)))))",
")))))^^^^^^^^^(^^^^^^^^^^^^!mxxxxxxxy++++++++++/^^^^^^^^^^^^^^f+++++++++$^^^^^^^///J         K((^^^^^^^^O        T^^^^^^^^^)))))",
")))))^^^^^^^^^/^^^^^^^^^^^^^Yxxxxxxxq+++++++++:^^^^^^^^^^^^^^^c+++++++++4^^^^^^^///T         ~((^^^^^^^^*        T^^^^^^^^^)))))",
")))))^^^^^^^^^^^^^^^^^^^^^^^/Dxxxxxx8+++++++++:^^^^^^^^^^^^^^^n+++++++++r/^^^^^^(/(T        .(^^^^^^^^^^-        T^^^^^^^^^)))))",
")))))^^^^^^^^^^^^^^^^^^^^^^^/^Mxxxxx8+++++++++4^^^^^^^^^^^^^^^A+++++++++t(^^^^^^((((        O^^^^^^^^^^^-        T^^^^^^^^^)))))",
")))))^^^^^^^^^^^^^^^^^^^^^^^^^Yxxxxx8+++++++++4^^^^^^^^^^^^^^^H+++++++++f(^^^^^^^^^^        @^^^^^^^^^^^-.       Y/^^^^^^^^)))))",
")))))^^^^^^^^^^^^^^^^^^^^^^^^^Zxxxxx8+++++++++4^^^^^^^^^^^^^^^n+++++++++k^^^^^^^^^^^        @^^^^^^^^^^^-        Y^^^^^^^^^)))))",
")))))^^^^/^^^^^^^^^^^^^^^^^^^Pxxxxxx8+++++++++:^^^^^^^^^^^^^^^n+++++++++k^^^^^^^^^^^        @^^^^^^^^^^^-        T^^^^^^^^^)))))",
")))))^^^^^^^^^^^^^^^^^^^^^^^Qxxxxxxxq+++++++++:^^^^^^^^^^^^^^^z+++++++++k(^^^^^^^^^^        @^^^^^^^^^^^-        Y^^^^^^^^^)))))",
")))))^^^^^^^^^^^^^^^^^^^^^^^Bxxxxxxxy++++++++++^^^^^^^^^^^^^^^i+++++++++k^^^^^^^/(^^        @^^^^^^^^^^^-        T^^^^^^^^^)))))",
")))))^^^^^^^^^^^^^^^^^^^^^^Gxxxxxxxxy++++++++++U^^^^^^^^^^^^^^3+++++++++k(^^^^^^^^^^        @^^^^^^^^^^^-        T^^^^^^^^^)))))",
")))))^^^^^^^^^^^^^^^^^^^^^Wxxxxxxxxxh++++++++++V^^^^^^^^^^^^^~$+++++++++k^^^^^^^^^^^        @^^^^^^^^^^(-        T(^^^^(^^^)))))",
"))))))^^^^^^^^^^^^^^^^^^^^Nxxxxxxxxxx:+++++++++i^^^^^^^^^^^^^A++++++++++f^^^^^^^^^^^        @^^^^^^^^^^^-        T^^^^^^^^^)))))",
"))))))^^^^^^^^^^^^^^^^^^^FxxxxxxxxxBR2+++++++++:~((^^(^^^^^^^9++++++++++k(^^^^^^^^^^        O^((^^^^^^^^>        T^^^^^^^^^)))))",
"))))))^^^^^^^^^^/^^^^^^^RxxxxxxxxxxR^f++++++++++n(((^^^^^^^^U+++++++++++k(^^/^^^^^^^        @^((^^^^^^^^,        T^^^^^^^^^)))))",
"))))))^^^^^^^^^^^^^^//^~NxxxxxxxxxD^/Y++++++++++,~^(^^^^^^^^3+++++++++++k^^^^^^^^^^^        @/((^^^^^^^^-        T^^^^^^^(^)))))",
"))))))^^^^^^^^^^^^^^///Dxxxxxxxxxx!^//4++++++++++9~(^^(^^^(r++++++++++++k^(^^^^^^^^^        @///^^^^^^^^-        T^^^^^^^^))))))",
"))))))//^^^^^^^^^^^^^/YxxxxxxxxxxP^^//V+++++++++++3L^^^^^L3+++++++++++++k^^^^^^^^^^^        @///^^^^^^^^-        T^^^^^^^^))))))",
")))))))/^^^^^^^^^^^^^~mxxxxxxxxxN~^^/^^3++++++++++++,rir,+++++3+++++++++k^^^^^^/^^^^        O///^^(/^^^^-        T^^^^^^^^))))))",
")))))))^^^^^^^^^^^^^^ZxxxxxxxxxxR^^^^^^L+++++++++++++++++++++>n+++++++++f(^^^^^^^^^(        O/^^^^^^^^^^-        T^^^^^^^^))))))",
")))))))^^^^^^^^^^^^^YxxxxxxxxxxZ^^^^^^^^f+++++++++++++++++++$LJ+++++++++f/^^^^^^^^^(        O^^^^^^^^^^^-        T^^^^^^^)))))))",
")))))))^^^^^^^^^^^^QxxxxxxxxxxxQ^^^^^^^^^r+++++++++++++++++$A^L+++++++++r//^^^^^^^^^.       O//(^^^^^^^^-        T^^^^^^^)))))))",
"))))))))^^^^^^^^^^^ZxxxxxxxxxxG/^^^^^^^^^~8+++++++++++++++$A^(W+++++++++r/^^^^^^^^^^.       @/(/^^(^^^^^-        T^^^^^^^)))))))",
"))))))))^^^^^^^^^^!PPPPPPPPPPP~^^^^^^^^^^^Rn:+++++++++++$rW(/(/+++++++++0/^^^^^^^^^^aaiaaaaaj///^^^^^^^^lauuasaauW^^^^^^))))))))",
"))))))))^^^^^^^^^^^^^^^^^^^^///^^^^^^^^^^^^^~Sr:+++++&7kT/((///zkkkkkkkfn^^^^^^/^^^^////^^^^////^/^^^^^^//^^^^^^^^^^^^^^))))))))",
")))))))))^^^^^^^^^^^^^^^^^^^^^^^^^^^^^^^^^^^/^^^^TUTQ^/^(/^^^^^^^^^^(((/^^^^^^^^^^^^///(^^^^/^^^^^^^^^^^/(^^^^^^^^^^^^^^))))))))",
")))))))))^^^^^^^^^^^^^^^^^^^^^^^^^^^^^^^^^^^/^^^^^(/^^^^//^(^^(/^^^(((//^^^^^^^^^^^^//((^^^^(^^^^^^^^^^^^^^^^^^^^^^^^^^)))))))))",
")))))))))^^^^^^^^^^^^^^^^^^^^^^^^^^^^^^^^^^^^^^^^^^^^^^^/(((^^^^^^((((//^^^^^^^^^^^^^(^^^^^^^^^^^^^^^^^^^^^^^^^^^^^^^^^)))))))))",
"))))))))))^^^^^/^^^/^^^^^^^^^^^^^^^^^^^^^^^^^^^^^^^^(^(^/(((^^^^^^/(((//^^^^^^^^^^^^^^^^^^^^^^^^^^^^^/^^^^^^^^^^^^^^^^^)))))))))",
"))))))))))^^^^^^^^^^^^^^^^^^^^^^^^^^^^^^^^^^^^^^^^^^^^^^^^^^^^^^^^^^^^^^^(^^^^^^^^^^^^^^^^^^^^^^^^^^^^^^^^^^^^^^^^^^^^))))))))))",
")))))))))))^^^^^^^^^^^^^^^^^^^^^^^^^^^^^^/^^^^^^^^^^^^^^^^^^^(^^^^^^^^^^//^^^^^^^^^^^^^^^^^^^^^^^^^^^^^^^^^/^^^^^^^^^^))))))))))",
")))))))))))^^^^^^^^^^^^^^^^^^^^^^^^^^/^^^^^^^^^^^^^^^^^^^^^^^^^^^(^^^^^^^^^^/(^^^^^^^^^^^^^^^^^^^^^^^(^^^^^^^^^^^^^^^)))))))))))",
"))))))))))))^^^^^^/^^^^^^^^^^^^^^^^^^^^^^^^^^^^^^^^^^^^^^^^^^^^^^^^^^^^^^^^^^^^^^^^^^^^^^^^^^^^^^^^^^/^^^^^^(^^^^^^^^)))))))))))",
"))))))))))))^^^^^^^^^^^^^^^^^/^^^^^^^^^^^^^^^^^^^^/^^^^^^^^^^^^^^^^^^^^^^^^^^^^^^^^^/(^^^^^^^^^^^^^^^^^^^^^^^^^^^^^^))))))))))))",
")))))))))))))^^^^^^^^^^^^^^^^^^^^^^^^^^^^^^^^^^^^^^^^^^^^/^^^/^^^^^^^^^^^^^^^^^^^^^^^^^^^^^^^^^^^^^^^^^^^^^^^^^^^^^^))))))))))))",
"))))))))))))))^^^^^^^^^^^(^/^^^^^^^^^^^^^^^^^^^^^^^^^(^^^^^^^^^^^^^^^^^^^^^^^^^^^^^^^^^^^(^^^^^^^^^^^^^^^^^^^^^^^^^)))))))))))))",
"))))))))))))))^^^^^^^^^^^^^^^^^^^^^^^^^^^^^/^^^^^^^^^^^^^^^^^^^^^^^^^^^^^^^^^^^^^^^^^^^^//^^^^^^^^^^^^^^^^^^^^^^^^))))))))))))))",
")))))))))))))))^^^^^^^^^^^^^^^^^^^^^^/^^^^^^^^^^^^^^^^^^^^^^^^^^^^^^^^^^^^^^^^^^^^^^(^^^^^^(^^^^^^^^^^^^^^^^^^^^^^))))))))))))))",
")))))))))))))))^^^^^^^^^^^^^^^^^^^^^^^^^^^^^^^^^^^^^(^^^^^^^^^^^^^/^^^^^^^^^^^^^^^/^^^^^^^^^^^^^^^^^(^^^^^^^^^^^^)))))))))))))))",
"))))))))))))))))^^^^^^^^^/^^^^^^^(^^^^^^^^^^^^^^^^/^^^^^^^^^^^^^^^^^^^^^^(^^^^^/^^^^^^^^^^^^^^^/^^^^^^^^^^^^^^^^))))))))))))))))",
")))))))))))))))))^^^^^^^^^^^^^^^^^^^^^^^^^^^^^^^^^^^^^^^^(^^^^^^^^(^^^^^^^^^^^^^^^^^^^^^^^^^^^^^^/^^^^^^^^^^^^^^))))))))))))))))",
"))))))))))))))))))^^^^^^^^^/^^^^^^^^^^^^^^^^^^^^^^^^^^^^^^^^^^^^^^^^^^^^^^^^^^^^^^^^^^^^^^^^^^^^^^^^^^^^^^^^^^^)))))))))))))))))",
")))))))))))))))))))^^^^^^^^^^^^^^^^^^^/^^^/(^^^^^^^^^^^^^^^/^^^^^^^^^^^^^^^^^^^^^^^^^^^^^^^^^^^^^^^^^^^^^^^^^^))))))))))))))))))",
")))))))))))))))))))^^^^^^^^^^^^^^^^^^^^^^^^^^^^^^^/^^^^^^^^^^^^^^^^^^^^^^/^^^^^^^^^^^^^^^/^^^^^^^^^^^^^^^^^^()))))))))))))))))))",
"))))))))))))))))))))^^^^^^^^^^^^^^^^^^^^^^^^^^^^^^^^^^^^^^^^^^^^^^^^^^^^^^^^^^^^^^^^^^^^^^^^^^^^^^^/^^^^^^^^))))))))))))))))))))",
")))))))))))))))))))))///^/^^^^^^^^^^^^^^^^^^^^^^^^^((^^^^^^^^^^^^^^^^^/^^^^^^^^^^^(^^^^^^^^^^(^^^^^^^^^^^^/)))))))))))))))))))))",
"))))))))))))))))))))))////^^^^^^^^^^(^^^^^^^^^^^^^^^^^^^^^^/^^^^^^^^^^(^/^^^^^^^^^^^/^^^^^^^^^^^^^^(^^^^^^))))))))))))))))))))))",
")))))))))))))))))))))))//^^^^^^^^^^^^^^^^^^^^^^^^^^^^^^^^^^^^^^^^^^^^^^^^^^^^^(^^^^^^^^^^^^^^^^^^^^^^^^^^)))))))))))))))))))))))",
"))))))))))))))))))))))))/^^^^^^^^^^^^^^^^^^^^^^^^^^^^^^^^^^^^^^/^^^^^^^^^^^^^^^^^^^^^^^^^^^^^^^^^^^^^^^^))))))))))))))))))))))))",
")))))))))))))))))))))))))///^^^^^^^^^^^^^^^^^^^^^^^^^^^^^^^^^^(^^^^^^^^^^^^^^^^^^^^^^^^^^^^^^^^^^^^^^^^)))))))))))))))))))))))))",
")))))))))))))))))))))))))))/^^^^^^/^^^^^^^^^^^^^^^^/^^^^^^^^^^^^^^^^^^^^^^^^^^^(^^^^^^^^^^^^^^^^^^^^^^))))))))))))))))))))))))))",
"))))))))))))))))))))))))))))(/^^^^^^^^^^(^^^^^^^^^^^^^^^^^^^^^^^^^^^^^^^^^^^^^^^^^^^^^^^^^^^^^^^^^^/^)))))))))))))))))))))))))))",
")))))))))))))))))))))))))))))/^^^^^^^^^^^^^^^^^^^^^^^^^^^^^^^^^^^/^^^^^^^^^^^^^^/^^^^^^^^^^^^^^^^^()))))))))))))))))))))))))))))",
")))))))))))))))))))))))))))))))(^^^^^^^^^^^^^^^^^^^^^^^^^^^^^^^^^^^^^^^^(^^^^^^^^^^^^^^^^^^^^^^^^/))))))))))))))))))))))))))))))",
"))))))))))))))))))))))))))))))))^^^^^^^^^^^^^^^^^^^^/^^^^^^^^^^^^^^^^^^^^^^^^^^^^^^/^^^^^^^^^^^^))))))))))))))))))))))))))))))))",
"))))))))))))))))))))))))))))))))))^^^^^^^^^^^^^^^^^^^^^^^^^^^^^^^^^^^^^^^^^/^^^^^^^^^^^^^^^^^^^)))))))))))))))))))))))))))))))))",
")))))))))))))))))))))))))))))))))))/^^^^^^^^^^^^^^^^^^^^^^^^^^^^^^(^^^^^^^^^^^^^^^^^^^^^^^^^^)))))))))))))))))))))))))))))))))))",
")))))))))))))))))))))))))))))))))))))^^^^^^^^^^^^^^^^^^^^^^^^^^^^^^^^^^^^^^(/^^^^^^^^^^^^^^)))))))))))))))))))))))))))))))))))))",
")))))))))))))))))))))))))))))))))))))))^^^^^^^^^(^^^^^^^/^^^^^^^^^^^^^^^^^^^^^^^^^^^^^^^^)))))))))))))))))))))))))))))))))))))))",
"))))))))))))))))))))))))))))))))))))))))))/^^^^^^^^^^^^^^^^^^^^^^^^^^^/^^/^^^^^^^^^^^^^)))))))))))))))))))))))))))))))))))))))))",
"))))))))))))))))))))))))))))))))))))))))))))^^^^^^^^^^^^^(^^^^^^^^^^^^^^^^^^^^^^^^^^))))))))))))))))))))))))))))))))))))))))))))",
")))))))))))))))))))))))))))))))))))))))))))))))/^^^^^^^^^^^^^^^^^^^^^^^^^^^^^^^^^)))))))))))))))))))))))))))))))))))))))))))))))",
")))))))))))))))))))))))))))))))))))))))))))))))))))^^^^^^^^^^^^^^^^^^^^^^^^^^)))))))))))))))))))))))))))))))))))))))))))))))))))",
"))))))))))))))))))))))))))))))))))))))))))))))))))))))))^^^(^^^^^^^^/^^^))))))))))))))))))))))))))))))))))))))))))))))))))))))))",
"))))))))))))))))))))))))))))))))))))))))))))))))))))))))))))))))))))))))))))))))))))))))))))))))))))))))))))))))))))))))))))))))",
"))))))))))))))))))))))))))))))))))))))))))))))))))))))))))))))))))))))))))))))))))))))))))))))))))))))))))))))))))))))))))))))))",
"))))))))))))))))))))))))))))))))))))))))))))))))))))))))))))))))))))))))))))))))))))))))))))))))))))))))))))))))))))))))))))))))",
"))))))))))))))))))))))))))))))))))))))))))))))))))))))))))))))))))))))))))))))))))))))))))))))))))))))))))))))))))))))))))))))))",
"))))))))))))))))))))))))))))))))))))))))))))))))))))))))))))))))))))))))))))))))))))))))))))))))))))))))))))))))))))))))))))))))"
};
